HIERARCHY
ROOT SpineBase
{
  OFFSET 0.000000 0.000000 0.000000
  CHANNELS 6 Xposition Yposition Zposition Zrotation Xrotation Yrotation
  JOINT SpineMid
  {
    OFFSET 0.000000 26.266022 0.000000
    CHANNELS 3 Zrotation Xrotation Yrotation
    JOINT SpineShoulder
    {
      OFFSET 0.047655 19.669831 -0.522552
      CHANNELS 3 Zrotation Xrotation Yrotation
      JOINT Neck
      {
        OFFSET -0.013203 6.542734 -0.424017
        CHANNELS 3 Zrotation Xrotation Yrotation
        JOINT Head
        {
          OFFSET 1.946983 11.544876 -0.378076
          CHANNELS 3 Zrotation Xrotation Yrotation
          End Site
          {
            OFFSET 0 0 0
          }
        }
      }
      JOINT ShoulderLeft
      {
        OFFSET -11.553166 -1.803835 -8.331800
        CHANNELS 3 Zrotation Xrotation Yrotation
        JOINT ElbowLeft
        {
          OFFSET -4.141008 -21.940544 -2.945292
          CHANNELS 3 Zrotation Xrotation Yrotation
          JOINT WristLeft
          {
            OFFSET 2.138338 -21.712824 -6.080828
            CHANNELS 3 Zrotation Xrotation Yrotation
            JOINT HandLeft
            {
              OFFSET 1.053599 -6.501107 -2.648125
              CHANNELS 3 Zrotation Xrotation Yrotation
              JOINT HandTipLeft
              {
                OFFSET 1.463388 -5.152749 -0.205330
                CHANNELS 3 Zrotation Xrotation Yrotation
                End Site
                {
                  OFFSET 0 0 0
                }
              }
              JOINT ThumbLeft
              {
                OFFSET 1.792136 -0.041579 1.283611
                CHANNELS 3 Zrotation Xrotation Yrotation
                End Site
                {
                  OFFSET 0 0 0
                }
              }
            }
          }
        }
      }
      JOINT ShoulderRight
      {
        OFFSET 12.001496 -3.330733 3.760841
        CHANNELS 3 Zrotation Xrotation Yrotation
        JOINT ElbowRight
        {
          OFFSET 3.131497 -21.767231 2.907611
          CHANNELS 3 Zrotation Xrotation Yrotation
          JOINT WristRight
          {
            OFFSET 6.451253 -21.153461 -5.287339
            CHANNELS 3 Zrotation Xrotation Yrotation
            JOINT HandRight
            {
              OFFSET 1.460618 -5.893987 -3.399771
              CHANNELS 3 Zrotation Xrotation Yrotation
              JOINT HandTipRight
              {
                OFFSET 0.357328 -4.607094 -3.059427
                CHANNELS 3 Zrotation Xrotation Yrotation
                End Site
                {
                  OFFSET 0 0 0
                }
              }
              JOINT ThumbRight
              {
                OFFSET 2.456181 -0.103567 -3.301595
                CHANNELS 3 Zrotation Xrotation Yrotation
                End Site
                {
                  OFFSET 0 0 0
                }
              }
            }
          }
        }
      }
    }
  }
  JOINT HipLeft
  {
    OFFSET -5.373824 1.075435 -5.191936
    CHANNELS 3 Zrotation Xrotation Yrotation
    JOINT KneeLeft
    {
      OFFSET -5.262549 -33.906292 -0.532912
      CHANNELS 3 Zrotation Xrotation Yrotation
      JOINT AnkleLeft
      {
        OFFSET -3.083402 -30.208368 6.103251
        CHANNELS 3 Zrotation Xrotation Yrotation
        JOINT FootLeft
        {
          OFFSET 5.228310 -8.890649 0.849192
          CHANNELS 3 Zrotation Xrotation Yrotation
          End Site
          {
            OFFSET 0 0 0
          }
        }
      }
    }
  }
  JOINT HipRight
  {
    OFFSET 5.113207 0.349104 -0.693169
    CHANNELS 3 Zrotation Xrotation Yrotation
    JOINT KneeRight
    {
      OFFSET -2.704157 -32.234623 1.779474
      CHANNELS 3 Zrotation Xrotation Yrotation
      JOINT AnkleRight
      {
        OFFSET -2.816260 -32.904122 6.014170
        CHANNELS 3 Zrotation Xrotation Yrotation
        JOINT FootRight
        {
          OFFSET -3.596982 -6.903262 -4.022481
          CHANNELS 3 Zrotation Xrotation Yrotation
          End Site
          {
            OFFSET 0 0 0
          }
        }
      }
    }
  }
}
MOTION
Frames: 9
Frame Time: 0.033333
16.383182 71.977677 358.617593 -0.302673 -1.132037 -27.257930 0.885801 0.462272 27.262740 0.114961 -0.040696 0.028135 -6.276650 5.701501 -0.653183 0.000000 0.000000 0.000000 -6.435243 0.591543 0.901441 -0.368996 3.672408 1.331196 1.672108 -7.184058 -1.171164 3.930197 7.408262 -0.167603 0.000000 0.000000 0.000000 0.000000 0.000000 0.000000 53.066538 -17.639386 12.267482 107.991878 72.677214 -130.391346 -30.648803 32.795585 -9.790377 -11.246073 8.214578 -14.169333 0.000000 0.000000 0.000000 0.000000 0.000000 0.000000 2.274786 -0.387511 27.608275 1.888463 0.890188 0.421509 6.385665 11.483193 4.627029 0.000000 0.000000 0.000000 1.090161 0.427970 27.391592 -2.112209 1.173197 -0.338241 39.461705 25.253103 -45.074612 0.000000 0.000000 0.000000
16.443612 72.088309 358.609373 -0.035324 -0.984806 -27.516881 0.797386 0.517512 27.531236 0.080503 0.002548 0.035413 -5.634795 4.628347 -0.609286 0.000000 0.000000 0.000000 -5.933055 0.675318 0.712584 -0.682502 3.640042 1.397688 1.825159 -6.444424 -1.060726 4.406391 4.720888 -0.657847 0.000000 0.000000 0.000000 0.000000 0.000000 0.000000 62.389422 -5.185745 10.179434 110.500583 67.844783 -141.248058 -33.529831 25.038765 -18.178421 -15.920901 7.113370 -16.365231 0.000000 0.000000 0.000000 0.000000 0.000000 0.000000 2.037948 -0.575376 27.868514 1.413946 0.933817 0.332125 5.665727 6.418495 2.332241 0.000000 0.000000 0.000000 0.866448 0.267084 27.650465 -2.009390 0.831506 -0.298383 41.505549 25.663396 -47.565889 0.000000 0.000000 0.000000
16.540735 72.214628 358.679068 0.187636 -0.813789 -27.599124 0.698880 0.560717 27.620399 0.043737 0.054080 0.040103 -5.698822 2.822706 -0.452517 0.000000 0.000000 0.000000 -5.453286 0.608288 0.556213 -0.927125 3.797270 1.451233 1.752884 -7.927162 -1.335746 4.954933 5.387994 -0.611440 0.000000 0.000000 0.000000 0.000000 0.000000 0.000000 71.234867 8.760466 4.978201 113.036399 65.274937 -153.554216 -34.585941 16.111790 -25.981101 -15.989332 5.425832 -16.879540 0.000000 0.000000 0.000000 0.000000 0.000000 0.000000 1.830417 -0.764157 27.947154 0.741768 1.102968 0.191036 4.743064 1.123398 -0.079936 0.000000 0.000000 0.000000 0.517384 0.157197 27.712531 -1.960798 0.504460 -0.286730 40.607577 25.391472 -46.359531 0.000000 0.000000 0.000000
16.666980 72.377266 358.776510 0.394981 -0.649523 -27.459209 0.526638 0.524538 27.484616 -0.020702 0.062379 0.038586 -5.834801 0.967045 -0.265533 0.000000 0.000000 0.000000 -4.892182 0.601833 0.430749 -1.141622 3.952583 1.499798 1.937126 -8.916695 -1.578063 5.509403 8.008132 0.063568 0.000000 0.000000 0.000000 0.000000 0.000000 0.000000 80.572838 21.201681 -2.413914 119.045264 65.210204 -173.481208 -33.404089 7.945113 -29.058180 -13.573885 1.690998 -17.334186 0.000000 0.000000 0.000000 0.000000 0.000000 0.000000 1.668633 -0.901981 27.796285 -0.577263 1.281074 -0.048149 4.224222 -5.509200 -3.262266 0.000000 0.000000 0.000000 0.309400 0.033724 27.561883 -1.761477 0.206714 -0.236869 37.271677 24.709277 -42.720956 0.000000 0.000000 0.000000
16.809261 72.531419 358.896681 0.575006 -0.520585 -27.044653 0.380686 0.438798 27.072585 -0.065718 0.025461 0.036963 -6.161244 -0.954187 -0.053691 0.000000 0.000000 0.000000 -4.338938 0.675385 0.328136 -1.411122 4.072232 1.547795 2.356847 -9.764293 -1.853434 6.764519 10.852629 0.659903 0.000000 0.000000 0.000000 0.000000 0.000000 0.000000 88.574237 31.164034 -11.107739 123.927309 67.540785 167.994894 -40.382467 9.033304 -33.401835 2.208045 -1.457172 -8.698985 0.000000 0.000000 0.000000 0.000000 0.000000 0.000000 1.559245 -0.986641 27.368594 0.109703 1.366827 0.076954 3.479901 -0.198034 -0.465457 0.000000 0.000000 0.000000 -0.010934 -0.274949 27.137153 -1.048081 -0.013821 -0.125835 31.760167 23.515255 -37.095332 0.000000 0.000000 0.000000
16.948311 72.669265 359.019814 0.702315 -0.470838 -26.535761 0.307514 0.290179 26.565710 -0.087925 -0.053109 0.035710 -6.149490 -2.313272 0.142072 0.000000 0.000000 0.000000 -3.947033 0.870191 0.274720 -1.535188 4.228079 1.559118 2.163375 -8.942448 -1.624837 6.793165 10.080566 0.661642 0.000000 0.000000 0.000000 0.000000 0.000000 0.000000 95.041855 38.670239 -19.972220 119.362499 71.943518 166.199648 -52.167904 11.392729 -48.314915 21.553184 4.128089 6.591115 0.000000 0.000000 0.000000 0.000000 0.000000 0.000000 1.511163 -0.971000 26.845162 -0.169166 1.521732 0.037987 3.711608 1.024714 0.393498 0.000000 0.000000 0.000000 -0.838678 0.107446 26.539433 -0.659643 -0.871721 -0.050880 25.390322 21.306142 -29.808983 0.000000 0.000000 0.000000
17.065987 72.803898 359.118301 0.844211 -0.498999 -25.984915 0.335514 0.108952 26.020146 -0.069267 -0.165667 0.040321 -5.819443 -3.322215 0.353566 0.000000 0.000000 0.000000 -3.738256 0.972178 0.275666 -1.590749 4.675327 1.521328 1.907051 -8.228923 -1.402594 6.135877 9.236657 0.719056 0.000000 0.000000 0.000000 0.000000 0.000000 0.000000 99.391180 43.277046 -26.922142 128.644449 73.488167 148.070023 -49.719399 4.991265 -49.085950 24.240489 5.376468 8.496896 0.000000 0.000000 0.000000 0.000000 0.000000 0.000000 1.434099 -0.883611 26.277810 -0.554067 1.610019 -0.007411 4.498495 2.983650 1.640574 0.000000 0.000000 0.000000 -0.977492 0.078637 25.989263 -0.816262 -0.782737 -0.087615 19.323940 17.312276 -22.144523 0.000000 0.000000 0.000000
17.144008 72.951949 359.165750 0.945969 -0.536312 -25.561775 0.405048 -0.048294 25.602672 -0.045435 -0.270472 0.045716 -5.119475 -3.804919 0.523553 0.000000 0.000000 0.000000 -3.206548 1.420851 0.163197 -2.057944 4.870738 1.607348 1.009219 -9.558791 -1.394147 5.672887 10.600873 0.780879 0.000000 0.000000 0.000000 0.000000 0.000000 0.000000 102.628526 46.577336 -32.656775 136.170875 74.420467 134.240325 -45.760125 -2.546076 -49.082109 20.917428 5.754421 8.285092 0.000000 0.000000 0.000000 0.000000 0.000000 0.000000 1.296872 -0.698221 25.819916 -0.730822 1.384789 0.010979 4.875421 4.489443 2.443779 0.000000 0.000000 0.000000 -0.350496 0.423550 25.608853 -1.114268 -0.915419 -0.023879 13.440683 14.311225 -16.222261 0.000000 0.000000 0.000000
17.220564 72.982415 359.246507 1.046762 -0.599655 -24.715444 0.490083 -0.185436 24.763128 -0.014074 -0.361233 0.052613 -3.513756 -3.823113 0.680942 0.000000 0.000000 0.000000 -2.926783 1.592221 0.124006 -2.334097 5.250671 1.625175 -0.083259 -11.414137 -1.474274 5.842557 10.565590 0.230170 0.000000 0.000000 0.000000 0.000000 0.000000 0.000000 104.662457 48.376021 -36.369974 148.113528 71.421809 111.623894 -38.285814 -12.430047 -44.355856 22.840875 8.301603 10.085872 0.000000 0.000000 0.000000 0.000000 0.000000 0.000000 1.110383 -0.446420 24.928196 -1.084689 1.073450 0.005836 6.615135 5.620588 3.094428 0.000000 0.000000 0.000000 -0.465622 0.579147 24.755307 -0.833957 -1.077924 0.049546 2.676565 4.820828 -3.785031 0.000000 0.000000 0.000000
